<svg width="182" height="94" viewBox="0 0 182 94" fill="none" xmlns="http://www.w3.org/2000/svg">
<path d="M79.4643 94L79.1027 93.9963C70.6853 93.9542 63.9168 91.4594 59.5373 86.7967C55.3802 82.3839 53.3944 76.0271 53.7991 68.4155C54.3663 56.2472 63.7399 38.1489 87.2677 38.1489H87.5026C93.5152 38.1852 99.5048 39.7571 102.063 41.9778L102.412 42.2784L102.307 42.7355C101.877 44.5781 100.636 46.5635 98.4295 46.5635C97.928 46.5635 97.4162 46.4526 96.8834 46.239C95.6222 45.7361 91.7735 44.1973 87.5463 44.1714H87.407C73.5144 44.1714 63.3318 54.2271 62.6594 68.6279C62.367 74.7221 63.9564 79.7857 67.2488 83.2866C70.434 86.6495 75.211 88.4499 81.0707 88.4825C83.5244 88.4825 86.2708 87.9568 87.4843 87.5761C88.2867 83.7163 89.3058 77.4157 89.7464 74.7037C89.8009 74.3953 89.8348 74.1379 89.8696 73.9529C88.9809 74.0869 86.6752 74.45 85.7607 74.5388L84.4691 74.68H84.4639C84.1382 74.68 83.8633 74.5477 83.6939 74.3229C83.6109 74.2229 83.6109 74.0797 83.6364 73.9134C83.7846 72.8868 85.1285 69.2432 86.5344 68.2169L86.6209 68.1768C86.6568 68.1734 90.386 67.1995 93.176 66.8095C93.6275 66.7409 96.1823 66.4937 96.6938 66.4937C97.4162 66.5014 97.928 66.6847 98.2672 67.0923C98.7302 67.6252 98.7043 68.3578 98.6308 68.9363C98.2853 70.6843 96.8676 78.4896 95.7268 84.7553C95.2101 87.5887 94.76 90.031 94.5345 91.2928L94.4475 91.7641L93.9854 91.8914C88.7673 93.3486 84.2959 94 79.4643 94Z" fill="#004877"/>
<path d="M176.101 94C175.052 94 174.829 93.6896 174.397 91.6537L166.57 50.1368L156.044 71.1425H167.689L167.666 71.9129C167.613 74.631 165.479 77.0624 163.109 77.1186H152.904L145.218 92.5218C144.773 93.3123 144.501 93.6858 142.967 93.6858H138.614C137.993 93.6858 137.592 93.5334 137.417 93.2287C137.258 92.9662 137.297 92.6307 137.523 92.2396C137.523 92.2396 138.103 91.0499 138.949 89.5777C139.179 89.1333 161.829 45.0314 163.909 41.057L163.567 39.5015L164.084 39.2329C165.19 38.6821 167.296 38.0728 168.771 38.0728C169.685 38.0728 170.968 38.3449 171.622 40.7414L181.978 91.6176C182.088 92.1468 181.772 92.5944 181.125 92.7904L180.452 92.9936C179.019 93.421 177.056 94 176.101 94Z" fill="#004877"/>
<path d="M107.762 94H107.75C107.551 93.9726 107.067 93.8856 106.798 93.5135C106.625 93.2746 106.564 92.9878 106.63 92.6379C107.482 87.9893 109.219 76.6652 110.89 65.7071C112.307 56.5155 113.631 47.8164 114.255 44.3659C113.618 44.4259 112.843 44.5181 112.22 44.5812L112.155 44.5959C111.576 44.6559 111.136 44.7083 111.078 44.7083C110.62 44.7083 110.391 44.3659 110.388 44.0501C110.525 42.8551 111.486 40.6912 112.74 39.7845L112.843 39.7373C114.857 39.0193 121.051 38.1164 124.917 38.1164C131.68 38.1164 136.723 39.8133 139.914 43.1511C142.664 46.028 143.96 49.9953 143.752 54.96C143.225 68.4719 132.459 73.3747 125.34 73.3747C123.105 73.3747 122.182 73.1404 121.243 72.3288C120.159 71.3895 119.59 69.8337 119.702 68.1711C119.728 67.6289 119.997 67.4203 120.49 67.6439C121.297 67.9647 122.097 68.0284 123.214 68.0284C131.18 68.0284 135.399 63.5845 135.744 54.8274C135.883 51.4787 134.958 48.6756 133.086 46.7134C131.135 44.6795 128.159 43.5932 124.493 43.5932C123.906 43.5932 122.612 43.5932 121.902 43.6382C120.765 50.3325 114.478 92.1448 114.417 92.5676C114.243 93.2362 113.687 93.9778 112.704 93.9778L107.762 94Z" fill="#004877"/>
<path d="M101.227 21.4057C101.227 21.4057 100.938 21.195 100.398 20.7742C100.128 20.5754 99.7923 20.3249 99.4022 20.0237C99.0007 19.7375 98.5391 19.4167 98.0178 19.045C97.5086 18.6714 96.9126 18.287 96.2733 17.8774C95.6411 17.4425 94.9139 17.0255 94.1539 16.5663C92.6084 15.6798 90.8329 14.7229 88.7859 13.8816C86.755 13.0291 84.4584 12.257 81.945 11.7492C80.6878 11.488 79.3836 11.3246 78.0314 11.2292C76.6875 11.1598 75.3068 11.12 73.9052 11.2543C73.5692 11.2817 73.2492 11.3105 72.9146 11.3543C72.738 11.2019 72.4631 10.9771 72.082 10.6563C71.7368 10.3606 71.2959 9.99597 70.7594 9.59161C70.23 9.18927 69.6338 8.70335 68.9255 8.21166C67.5417 7.18044 65.7785 6.02154 63.6717 4.82748C61.5484 3.63025 59.0496 2.44137 56.1516 1.50381C53.2628 0.588455 49.9474 -0.0481949 46.413 0.00282288C42.8848 0.060463 39.1573 0.827393 35.67 2.36903C32.1903 3.9078 28.9686 6.13769 26.1054 8.75955C23.2559 11.3978 20.7393 14.3961 18.5384 17.5728C16.3323 20.7529 14.4263 24.1031 12.7605 27.4867C11.0837 30.8585 9.66919 34.2781 8.42411 37.6245C7.18306 40.975 6.1531 44.2623 5.26245 47.3969C4.37323 50.5338 3.64513 53.5326 3.03997 56.3047C1.82246 61.8513 1.10299 66.5324 0.644015 69.8137C0.427455 71.4459 0.253978 72.7344 0.160058 73.6198C0.0552244 74.5 0.00467872 74.9594 0.00467872 74.9594C-0.034957 75.2641 0.181596 75.5503 0.488917 75.5975C0.799684 75.6552 1.10299 75.4416 1.14664 75.122C1.14664 75.122 1.22247 74.6562 1.3632 73.7807C1.49331 72.903 1.70844 71.6415 1.98474 70.0224C2.58128 66.7933 3.47165 62.1847 4.89021 56.7566C5.60021 54.0408 6.4406 51.1143 7.43408 48.0612C8.42784 45.018 9.56953 41.8289 10.9194 38.6001C12.2599 35.3894 13.7649 32.1096 15.5106 28.9153C17.2448 25.7202 19.2125 22.5836 21.4149 19.6689C23.6063 16.7407 26.0706 14.0589 28.7483 11.7676C31.4281 9.49766 34.3565 7.66232 37.3757 6.4772C40.386 5.28084 43.49 4.79779 46.4043 4.85399C49.3184 4.92892 52.0611 5.55579 54.4897 6.44608C56.9251 7.33982 59.0642 8.4601 60.8998 9.58787C62.7211 10.7249 64.2568 11.8215 65.4746 12.7991C65.6303 12.9205 65.7598 13.0349 65.9083 13.151C65.7925 13.1997 65.6733 13.2286 65.5613 13.2796C64.2117 13.8326 62.9014 14.5048 61.6477 15.259C60.3886 15.9882 59.1872 16.8309 58.0449 17.7249C56.9032 18.6167 55.8138 19.5816 54.7859 20.588C53.7559 21.587 52.782 22.6332 51.8698 23.7082C50.0264 25.8511 48.4329 28.1135 47.0095 30.365C44.1799 34.8911 42.124 39.4126 40.6753 43.3905C39.2225 47.3828 38.3804 50.8206 37.9973 53.2807C37.8077 54.514 37.7212 55.4856 37.6957 56.1675C37.6776 56.5171 37.6865 56.5061 37.6865 56.6733C37.6865 56.8396 37.7046 56.8779 37.7046 56.8779C37.7046 57.1552 37.9105 57.3823 38.1888 57.3999C38.4743 57.4125 38.7164 57.1825 38.7274 56.909C38.7274 56.909 38.7311 56.807 38.7417 56.6479C38.7509 56.481 38.7417 56.5318 38.7759 56.2271C38.8288 55.6121 38.9494 54.6751 39.197 53.4966C39.6668 51.1506 40.6442 47.8252 42.2432 44.0064C43.8349 40.2066 46.041 35.884 48.9769 31.6709C50.4389 29.5606 52.0771 27.4829 53.9024 25.5355C54.8146 24.5639 55.7653 23.6298 56.7751 22.7456C57.7781 21.8516 58.8149 21.0088 59.9101 20.2448C60.9937 19.4729 62.1176 18.7691 63.2866 18.1547C64.4378 17.5327 65.6211 16.9961 66.8334 16.5663C67.4334 16.3401 68.0475 16.1692 68.6526 15.9844C68.7954 15.9481 68.9327 15.9118 69.0682 15.8795C69.5398 15.7634 70.0097 15.636 70.4831 15.5599C71.0954 15.4374 71.71 15.3648 72.3149 15.2775C72.6185 15.2377 72.9221 15.2302 73.2237 15.1976C73.4569 15.1763 73.6918 15.1651 73.934 15.1561H74.1327C75.3341 15.0818 76.5195 15.1867 77.6778 15.2849C78.8264 15.4374 79.9526 15.6236 81.0239 15.9066C83.1777 16.4487 85.1687 17.2171 86.9356 18.0549C88.7204 18.9 90.278 19.8277 91.6368 20.7019C92.3071 21.1515 92.941 21.5559 93.5143 21.9818C94.0761 22.3885 94.6031 22.758 95.0661 23.1278C95.5193 23.4834 95.9295 23.8097 96.2905 24.0892C96.6401 24.3769 96.9373 24.625 97.1726 24.8357C97.6605 25.2418 97.9153 25.4519 97.9153 25.4519L97.9854 25.5139C98.0112 25.5317 98.0397 25.5611 98.0713 25.579C99.2213 26.4514 100.857 26.2295 101.726 25.0746C102.594 23.9218 102.374 22.285 101.227 21.4057Z" fill="#004877"/>
</svg>
